Coordinates
version=1
nRows=17
nColumns=34
inDegrees=yes

Units are S.I. units (second, meters, Newtons, ...)
If the header above contains a line with 'inDegrees', this indicates whether rotational values are in degrees (yes) or radians (no).

endheader
time	pelvis_tilt	pelvis_list	pelvis_rotation	pelvis_tx	pelvis_ty	pelvis_tz	hip_flexion_r	hip_adduction_r	hip_rotation_r	knee_angle_r	ankle_angle_r	subtalar_angle_r	mtp_angle_r	hip_flexion_l	hip_adduction_l	hip_rotation_l	knee_angle_l	ankle_angle_l	subtalar_angle_l	mtp_angle_l	lumbar_extension	lumbar_bending	lumbar_rotation	arm_flex_r	arm_add_r	arm_rot_r	elbow_flex_r	pro_sup_r	arm_flex_l	arm_add_l	arm_rot_l	elbow_flex_l	pro_sup_l
      0.00000000	     -7.26291797	      1.08338597	      1.02945710	      1.35150455	      1.07411981	     -0.60272180	     -0.10955237	      0.27217177	     -3.63096030	      2.49158614	     -1.80273388	    -10.36201546	      0.00000000	      3.22062233	      2.27672007	     -4.97447017	      7.27021399	     -3.99455966	    -14.80660065	      0.00000000	    -10.59042023	     -0.02879594	      2.23225617	     -0.93121443	     -8.16467269	      6.64572305	     36.56941140	     84.66725991	     -4.97195345	     -9.29559241	     14.51976350	     41.44761388	     79.26312532
      0.00833330	     -8.59390262	      0.78519946	      1.17803204	      1.35049038	      1.06665286	     -0.60407250	      0.93071788	      0.80172588	     -5.17639665	      1.71070720	     -1.50202149	     -5.98969137	      0.00000000	      3.89233700	      2.31736259	     -5.18668442	      5.75281412	     -3.35250525	    -12.49509325	      0.00000000	     -8.30096265	      0.36110972	      2.18806486	     -1.28313258	     -7.79963737	      5.69810524	     36.72275801	     84.47811993	     -5.83633834	     -8.94382679	     13.83018842	     42.40970922	     79.60637376
      0.01666670	     -9.83422853	      0.72906392	      0.87331350	      1.35504838	      1.06499469	     -0.60388701	      1.93870751	      1.13507183	     -6.69725171	      1.49667157	     -0.81110829	     -5.00666791	      0.00000000	      4.95927731	      2.35310010	     -6.22234844	      5.67860196	     -2.25894589	    -11.90728957	      0.00000000	     -6.71747994	      0.06684056	      2.36819249	     -2.07872413	     -6.84897223	      3.07613861	     37.67419607	     84.55861693	     -7.13413032	     -8.87840302	     11.67391472	     43.62578601	     80.95111638
      0.02500000	    -10.49176890	      0.50106116	      0.96957742	      1.35625299	      1.06422665	     -0.60590306	      2.43377116	      1.26306930	     -7.60274659	      1.35811949	     -1.19323905	     -4.36704649	      0.00000000	      5.33618203	      2.40298672	     -6.07872983	      5.23492012	     -1.65590980	    -12.02817197	      0.00000000	     -5.56297831	      0.12860723	      2.45830451	     -2.90702726	     -6.41951712	      1.77936095	     38.65663024	     84.81050435	     -7.93571951	     -8.60805566	     10.53629993	     44.74453997	     81.85648400
      0.03333330	    -10.98092389	      0.48184984	      0.85405161	      1.35773941	      1.06295036	     -0.60655433	      2.85552636	      1.19548766	     -7.73849589	      1.46113811	     -0.64905386	     -4.08811206	      0.00000000	      5.53837001	      2.54897189	     -6.50896416	      4.83596000	     -0.87705596	    -11.77717155	      0.00000000	     -5.15286279	      0.11654193	      2.43224727	     -3.75051456	     -5.28477298	     -2.87039746	     40.46032097	     87.17125221	     -8.74943042	     -7.67149043	      6.75004263	     45.79376872	     87.22070102
      0.04166670	    -11.17144888	      0.40832598	      0.88124430	      1.36208988	      1.06362627	     -0.60801900	      2.84498191	      1.18351972	     -7.93352375	      1.52029142	     -0.68868243	     -4.15588958	      0.00000000	      5.41988059	      2.60373051	     -6.11699874	      4.40761020	     -0.08655784	    -11.71362487	      0.00000000	     -4.56212099	      0.17718754	      2.35310037	     -4.04804429	     -5.10382417	     -2.78048785	     40.56459868	     87.31561914	     -9.15652141	     -7.54601910	      6.86869272	     45.87672630	     87.46821949
      0.05000000	    -11.82082442	      0.28964360	      1.22049316	      1.36618670	      1.06221277	     -0.60999764	      3.20028442	      1.18682017	     -8.55818035	      1.41062452	     -1.05613957	     -4.23392172	      0.00000000	      5.95902811	      2.56757939	     -6.01436421	      4.40138283	      0.93952812	    -10.84983654	      0.00000000	     -3.34998298	      0.25547300	      1.88731998	     -4.53017948	     -4.80623065	     -2.77406224	     40.92063042	     87.81236194	     -9.78769622	     -7.49634564	      6.87823992	     46.45772090	     88.37870863
      0.05833330	    -11.94664427	      0.24266697	      1.21518645	      1.36820505	      1.06099309	     -0.61091727	      3.12001271	      1.15454183	     -8.56094495	      1.45920601	     -1.05710393	     -4.23717212	      0.00000000	      5.90917084	      2.57125665	     -6.01792184	      4.42530942	      0.94420090	    -10.85186190	      0.00000000	     -3.34082858	      0.25267043	      1.89156736	     -4.52095445	     -4.79502464	     -2.77170224	     40.92467588	     87.81382567	     -9.78487001	     -7.49258526	      6.87858074	     46.46139011	     88.38113755
      0.06666670	    -12.16306512	      0.28408617	      1.19128805	      1.36463649	      1.06197580	     -0.61084737	      3.38452722	      1.05551860	     -8.57585790	      1.62982720	     -0.89585397	     -4.73042674	      0.00000000	      6.05038061	      2.58590458	     -6.94818008	      4.46701410	      2.52629028	     -8.90442344	      0.00000000	     -2.59938985	      0.03743438	      0.77228430	     -3.64319311	     -4.22299781	     -2.45615130	     39.79328154	     93.75694979	    -11.35150553	     -6.82727028	      3.13210205	     48.35039862	     99.98533195
      0.07500000	    -12.33101834	      0.23726218	      1.13362640	      1.36097080	      1.06357649	     -0.61213860	      3.75273250	      1.04275383	     -8.70221367	      1.69624095	     -1.33033584	     -4.58880872	      0.00000000	      6.27052408	      2.58418177	     -6.92258238	      4.45512225	      2.04489828	     -8.99851057	      0.00000000	     -2.62733598	      0.02933011	      0.94859017	     -3.44391030	     -4.09213108	     -2.37051034	     39.89695404	     93.80322947	    -10.90643890	     -6.72960412	      3.21041988	     48.62433846	    100.09090869
      0.08333330	    -12.29714023	      0.19885230	      1.21899150	      1.36289952	      1.06153990	     -0.61256151	      3.80458664	      1.04057360	     -8.73939069	      1.77937007	     -1.43696202	     -4.57809151	      0.00000000	      6.22844821	      2.59521170	     -6.97661549	      4.45762089	      1.94450869	     -9.02964087	      0.00000000	     -2.42039354	      0.04332856	      0.96977835	     -3.24140878	     -3.99237868	     -2.33664420	     39.98865848	     93.81380018	    -10.63590274	     -6.71061095	      3.22209366	     48.76534337	    100.11251665
      0.09166670	    -12.50523149	      0.16387812	      1.16521610	      1.36664600	      1.06164203	     -0.61388141	      4.19378234	      1.00714305	     -9.37304644	      2.07437777	     -2.23655648	     -4.70558737	      0.00000000	      6.30033886	      2.60849177	     -7.26414354	      4.29370698	      1.15830229	     -9.03985601	      0.00000000	     -2.38354906	      0.01740397	      1.04927386	     -3.14800090	     -3.85206896	     -2.21226835	     40.06793557	     93.87151761	    -10.36462749	     -6.70682666	      3.39043605	     49.12520057	    100.25088019
      0.10000000	    -12.88779909	      0.19787613	      1.27808775	      1.36735142	      1.06464820	     -0.61367810	      4.55899961	      0.94052798	     -9.32259770	      2.01364885	     -2.98251202	     -5.10381291	      0.00000000	      6.64399052	      2.70443089	     -7.02293949	      4.10456197	      0.03952730	     -9.66609235	      0.00000000	     -1.75728622	     -0.18039199	      1.14578038	     -3.27413808	     -3.78709159	     -1.77415945	     40.35134961	     94.20418301	    -10.44729363	     -7.20081251	      4.31321555	     50.22384052	    101.14649124
      0.10833330	    -12.92775001	      0.21814697	      1.54888931	      1.36942759	      1.06279596	     -0.61469301	      4.51941959	      0.89983585	     -9.63281806	      1.90561389	     -3.25540806	     -5.13576636	      0.00000000	      6.56037325	      2.73907565	     -7.50085408	      3.98363331	     -0.84965463	     -9.50887051	      0.00000000	     -1.62219177	     -0.33933171	      1.05207690	     -3.25820287	     -3.55626279	     -1.69512454	     40.38356795	     94.24931778	    -10.14208292	     -7.31253041	      4.31850444	     50.33771462	    101.25803196
      0.11666670	    -12.90845123	      0.18210266	      1.67838173	      1.37068764	      1.06189537	     -0.61613724	      4.48486296	      0.88004927	     -9.71448550	      1.89580279	     -3.33986962	     -5.13449793	      0.00000000	      6.43303131	      2.74181361	     -7.67164710	      3.91849249	     -1.08985789	     -9.48661003	      0.00000000	     -1.39389953	     -0.38997847	      1.00130355	     -3.19145188	     -3.45481057	     -1.66433928	     40.43126070	     94.26180574	     -9.92432812	     -7.30933926	      4.32310816	     50.45024588	    101.28661987
      0.12500000	    -12.94212028	      0.22791007	      1.76835572	      1.37160968	      1.06327783	     -0.61626369	      4.43135881	      0.84822651	    -10.22635116	      1.55025002	     -3.83950351	     -5.12122990	      0.00000000	      6.32672273	      2.78660569	     -8.11984704	      3.64507137	     -2.26405698	     -9.22420877	      0.00000000	     -1.25696104	     -0.60615271	      0.92732509	     -3.33940135	     -3.19230421	     -1.54860544	     40.37967156	     94.32164132	     -9.80231907	     -7.47916075	      4.40878854	     50.65100634	    101.44079344
      0.13333330	    -12.99689834	      0.14654136	      1.87186581	      1.37612375	      1.06380507	     -0.61794245	      4.45775744	      0.91122973	    -10.24399680	      1.41828054	     -3.85835335	     -5.10266259	      0.00000000	      6.15979255	      2.76341862	     -8.22830915	      3.42188141	     -2.35647429	     -9.21828713	      0.00000000	     -1.13705112	     -0.65102787	      0.80722542	     -3.39795053	     -3.05795070	     -1.50677457	     40.35772806	     94.33606947	     -9.60656012	     -7.44115936	      4.44132734	     50.75908484	    101.47603229
